<?xml version="1.0" encoding="UTF-8" standalone="no"?>
<svg
   xmlns:dc="http://purl.org/dc/elements/1.1/"
   xmlns:cc="http://creativecommons.org/ns#"
   xmlns:rdf="http://www.w3.org/1999/02/22-rdf-syntax-ns#"
   xmlns:svg="http://www.w3.org/2000/svg"
   xmlns="http://www.w3.org/2000/svg"
   id="svg8"
   version="1.1"
   viewBox="0 0 100 100"
   height="100mm"
   width="100mm">
  <defs
     id="defs2" />
  <metadata
     id="metadata5">
    <rdf:RDF>
      <cc:Work
         rdf:about="">
        <dc:format>image/svg+xml</dc:format>
        <dc:type
           rdf:resource="http://purl.org/dc/dcmitype/StillImage" />
        <dc:title></dc:title>
      </cc:Work>
    </rdf:RDF>
  </metadata>
  <g
     transform="translate(0,-197)"
     id="layer1">
    <path
       id="path75"
       d=""
       style="fill:#000000;stroke-width:0.26458335" />
    <path
       style="fill:#000000;stroke-width:0.47034425"
       d="M 40.122768,295.73462 C 29.636705,293.16541 22.742032,289.41569 15.509579,282.34856 5.5119361,272.57943 0.378683,260.59323 0.378683,247.01775 c 0,-13.57545 5.1332531,-25.56164 15.130896,-35.33079 9.759076,-9.53599 21.261729,-14.29051 34.573224,-14.29051 6.926123,0 13.636657,1.40021 19.385134,4.04485 3.985804,1.83371 6.474533,2.00467 15.145841,1.04049 4.527634,-0.50348 5.146444,-0.47951 6.247174,0.24168 2.464436,1.61474 2.738436,2.57821 2.6751,9.40646 -0.07125,7.68316 0.573308,12.13925 2.311331,15.979 2.398526,5.29892 3.773934,12.16004 3.773934,18.82598 0,13.31148 -4.75451,24.81416 -14.290519,34.57322 -7.448776,7.62302 -15.275844,11.9093 -26.30586,14.40573 -4.386901,0.9929 -14.509872,0.89688 -18.90217,-0.17917 z m 19.519289,-14.92208 c 9.302503,-2.37279 17.886602,-9.45485 22.149037,-18.27343 2.64539,-5.47304 3.391709,-8.88839 3.391709,-15.52136 0,-6.63295 -0.746319,-10.04827 -3.391709,-15.52135 -5.155763,-10.66677 -15.162288,-17.72465 -27.036827,-19.06983 -23.07149,-2.61357 -41.481798,15.86437 -38.860585,39.00333 0.825329,7.28565 4.130941,14.36614 9.273933,19.86442 4.737994,5.06529 13.274723,9.44032 20.034979,10.26783 4.104065,0.50237 10.91785,0.14852 14.439463,-0.74961 z"
       id="path961" />
  </g>
</svg>
