<?xml version="1.0" encoding="UTF-8" standalone="no"?>
<svg
   xmlns:dc="http://purl.org/dc/elements/1.1/"
   xmlns:cc="http://creativecommons.org/ns#"
   xmlns:rdf="http://www.w3.org/1999/02/22-rdf-syntax-ns#"
   xmlns:svg="http://www.w3.org/2000/svg"
   xmlns="http://www.w3.org/2000/svg"
   xmlns:sodipodi="http://sodipodi.sourceforge.net/DTD/sodipodi-0.dtd"
   xmlns:inkscape="http://www.inkscape.org/namespaces/inkscape"
   version="1.1"
   x="0px"
   y="0px"
   viewBox="0 0 71 76.3"
   style="enable-background:new 0 0 71 76.3;"
   xml:space="preserve"
   id="svg8"
   sodipodi:docname="keybase.svg"
   inkscape:version="0.92.2 5c3e80d, 2017-08-06"><metadata
     id="metadata14"><rdf:RDF><cc:Work
         rdf:about=""><dc:format>image/svg+xml</dc:format><dc:type
           rdf:resource="http://purl.org/dc/dcmitype/StillImage" /></cc:Work></rdf:RDF></metadata><defs
     id="defs12" /><sodipodi:namedview
     pagecolor="#ffffff"
     bordercolor="#666666"
     borderopacity="1"
     objecttolerance="10"
     gridtolerance="10"
     guidetolerance="10"
     inkscape:pageopacity="0"
     inkscape:pageshadow="2"
     inkscape:window-width="1070"
     inkscape:window-height="715"
     id="namedview10"
     showgrid="false"
     inkscape:zoom="3.0930536"
     inkscape:cx="-8.7927985"
     inkscape:cy="38.150002"
     inkscape:window-x="0"
     inkscape:window-y="0"
     inkscape:window-maximized="0"
     inkscape:current-layer="svg8" /><style
     type="text/css"
     id="style2">.st0{fill:#999999;}</style><path
     style="color:#000000;display:inline;overflow:visible;visibility:visible;opacity:1;fill:#000000;fill-opacity:1;fill-rule:nonzero;stroke:#000000;stroke-width:0.98215044;stroke-linejoin:round;stroke-miterlimit:4;stroke-dasharray:none;stroke-opacity:1;marker:none;enable-background:accumulate"
     d="M 35.5,3.0621012 A 35.087533,35.087533 0 0 0 0.41305912,38.150962 35.087533,35.087533 0 0 0 8.2529984,60.232082 C 8.1475991,56.037995 8.5230994,51.837876 9.2198028,48.772382 10.989946,41.230032 16.531721,34.379063 23.689257,30.761814 l 1.617096,-0.769223 -0.385571,-1.154794 C 24.689894,28.222094 24.458713,26.914415 24.381751,26.067825 L 24.22829,24.45073 22.611194,24.297269 c -2.462808,-0.230888 -3.770668,-0.923099 -4.617259,-2.693241 -0.461776,-0.923554 -0.460847,-1.078304 -0.306922,-3.541112 0.153926,-3.232436 0.384471,-3.925351 1.384987,-5.002829 1.231403,-1.38533 2.077778,-1.615643 5.15629,-1.461717 2.231919,0.153926 2.694057,0.230718 3.694573,0.692493 0.615702,0.307853 1.154564,0.615763 1.231524,0.615763 0.07696,0 0.768588,-0.846307 1.615178,-2.000749 l 1.463634,-2.0774783 0.922684,0.5390318 c 0.53874,0.307851 1.153867,0.6920285 1.461716,0.8459545 l 0.539033,0.306922 -0.462302,1.154793 c -0.230888,0.615703 -0.538799,1.694119 -0.615763,2.232859 l -0.153461,1.076145 1.308256,0.155379 c 4.694728,0.461777 8.234991,3.309425 9.543356,7.61934 0.384814,1.385329 0.384814,4.078114 0,5.386481 -0.384814,1.231404 -0.384582,1.308255 -0.07673,1.308255 0.538737,0 4.156299,1.769687 5.618591,2.69324 2.847623,1.847106 6.157804,5.08079 8.00491,7.851449 3.463323,5.156504 4.92412,10.773566 4.308418,16.930586 -0.123674,1.484085 -0.312051,2.839813 -0.569724,4.120428 A 35.087533,35.087533 0 0 0 70.586941,38.150962 35.087533,35.087533 0 0 0 35.5,3.0621012 Z M 22.975664,14.913128 c -0.840578,-0.02525 -0.998544,0.09121 -1.287155,0.379816 -0.30785,0.307851 -0.462301,0.692784 -0.462301,1.231524 0,0.461776 -0.0765,1.308084 -0.153461,2.000749 -0.153925,1.616218 0.07761,1.923321 1.693826,2.154208 2.385846,0.153926 2.308891,0.153866 2.53978,-0.615762 0.153925,-0.384813 0.537871,-1.38458 0.922684,-2.154208 0.384815,-0.769628 0.692493,-1.539668 0.692493,-1.770557 0,-0.692665 -0.768707,-1.000869 -2.846701,-1.154794 -0.461777,-0.03848 -0.818972,-0.06256 -1.099165,-0.07098 z m 1.175894,1.841532 h 0.999416 v 1.078064 1.078064 h -1.076145 -1.078065 v -0.694411 h -0.07673 c 0,-1.308367 0.154047,-1.461717 1.231524,-1.461717 z m 6.771468,0.07673 -0.306922,0.462302 c -0.615702,0.923554 -1.924775,3.925119 -2.309589,5.07956 -0.538739,1.770142 -0.307094,4.540183 0.385571,5.925513 0.692664,1.308367 2.540073,3.079507 3.078812,2.848619 0.07696,0.07696 0.229727,-0.230947 0.383652,-0.615762 0.461777,-1.385329 2.001859,-2.463049 3.541113,-2.463049 0.84659,0 2.07876,0.691624 2.92535,1.615177 l 0.769224,0.924603 0.692493,-0.845954 c 1.924068,-2.154957 2.155017,-5.157985 0.615762,-7.774719 -1.154442,-1.924069 -3.309538,-3.077881 -6.311084,-3.385733 -1.616219,-0.153925 -2.00203,-0.308204 -2.84862,-1.154794 z m 4.619176,14.392725 c -0.923553,0.07696 -0.693069,0.769637 0.769223,2.53978 l 1.384986,1.693826 -0.769223,0.615762 c -0.846591,0.769628 -0.92431,0.923209 -0.385571,1.384985 0.384813,0.384815 0.461896,0.306629 1.231524,-0.23211 l 0.847872,-0.537113 0.537114,0.460383 c 0.307851,0.230888 0.462301,0.61553 0.462301,0.692494 0,0.153924 -0.61559,0.692552 -1.308255,1.308254 -0.692665,0.538739 -1.231524,1.15433 -1.231524,1.308255 0,0.230888 0.385398,0.847236 1.078063,1.693826 0.230888,0.461777 0.615651,0.308023 1.924018,-0.692493 0.692665,-0.538739 1.30779,-1.001333 1.461716,-1.001333 0.07696,0 0.308144,0.231181 0.539032,0.539032 0.384813,0.615702 1.077135,0.615471 1.384985,0.07673 0.230889,-0.384814 0.230466,-0.460925 -4.310336,-6.002243 -2.693696,-3.309398 -3.231111,-3.848035 -3.615925,-3.848035 z m 7.126345,1.342784 c -0.235848,0.0221 -0.383042,0.149015 -0.585069,0.351042 l -0.462302,0.460383 2.000748,2.463049 c 1.077479,1.308367 2.232393,2.770729 2.386319,3.155542 0.461777,0.923554 0.538508,2.385449 0.07673,3.309003 -0.615702,1.308367 -2.462474,2.231869 -3.924766,1.924018 -0.615701,-0.153926 -0.846015,-0.0762 -1.461716,0.385571 -1.693181,1.231404 -3.540304,0.924421 -5.079559,-0.922685 -1.231404,-1.38533 -1.540134,-2.079052 -1.617096,-3.464382 0,-0.692665 -0.229727,-1.539436 -0.383653,-1.847287 -0.230888,-0.461776 -0.30884,-0.999244 -0.30884,-1.691908 l 0.07673,-1.078063 -0.999415,-0.23211 c -1.38533,-0.384814 -3.001213,-1.152704 -3.924766,-1.845368 -0.461776,-0.307852 -0.847407,-0.615763 -1.001332,-0.615763 -0.153926,0 -1.153461,0.460676 -2.23094,0.999415 -7.465387,3.848137 -12.314841,11.005623 -13.084469,19.086713 -0.07696,0.769627 -0.153229,1.771313 -0.230192,2.156127 l -0.07865,0.692493 0.847872,-0.847872 c 0.384814,-0.384815 3.771665,-3.924431 7.465878,-7.849531 3.694213,-3.925101 6.694505,-7.080307 6.771467,-7.080307 0.07696,0.07696 -0.307678,1.231414 -0.692493,2.539779 -2.53977,8.004128 -3.079044,9.543124 -3.002081,9.620087 0,0 0.923501,-0.307679 1.924018,-0.692493 6.541834,-2.847622 14.161166,-3.23302 22.242254,-1.078063 3.61725,0.923553 5.003242,0.923553 6.773385,0 1.000516,-0.538739 1.385511,-0.845549 1.847288,-1.615177 0.84659,-1.308367 0.92431,-3.156186 0.38557,-4.849368 C 55.091101,40.305533 50.010706,35.53305 45.239016,33.455055 43.69976,32.781631 43.061625,32.530071 42.668543,32.566899 Z m 16.424165,18.1295 -1.001333,1.076145 c -2.462807,2.693696 -6.079688,3.464494 -10.928342,2.156128 -4.155988,-1.077479 -5.848448,-1.308256 -9.773548,-1.308256 -3.001547,0 -4.002373,0.07557 -5.618591,0.460383 -4.46384,1.000515 -7.619529,2.463119 -12.006406,5.618592 -1.616218,1.154441 -2.925118,2.077478 -3.002081,2.077478 -0.07696,0 0.15445,-0.768122 0.462301,-1.768638 0.307851,-1.000516 0.846943,-2.617096 1.154794,-3.694574 l 0.615762,-1.924017 -0.692492,0.692493 c -0.384815,0.384813 -1.462765,1.462533 -2.386319,2.463048 l -1.617096,1.770557 0.385572,1.461716 c 0.461776,1.924069 1.538799,4.308831 2.69324,6.078974 0.461777,0.769628 0.845954,1.386671 0.845954,1.463634 0,0.07696 -0.923269,0.07673 -2.000748,0.07673 h -0.06522 A 35.087533,35.087533 0 0 0 35.5,73.237902 35.087533,35.087533 0 0 0 56.84259,65.969604 l 0.172644,-0.343368 c 1.000515,-2.001033 1.769395,-4.77096 2.154208,-7.233768 0.230889,-1.69318 0.307621,-6.312367 0.07673,-7.158957 z M 29.38458,59.238422 c 1.308366,0 2.232857,0.922573 2.232857,2.23094 0,1.38533 -0.847296,2.155894 -2.309589,2.232858 -0.769628,0 -1.076671,-0.153987 -1.538446,-0.615763 -0.461777,-0.461776 -0.615762,-0.76882 -0.615762,-1.538447 0,-1.462292 0.84561,-2.309588 2.23094,-2.309588 z m 14.622915,0 c 1.385329,0 2.155895,0.847296 2.232858,2.309588 0,0.84659 -0.07702,1.076671 -0.615762,1.538447 -0.53874,0.461776 -0.770738,0.615763 -1.540366,0.615763 -0.692665,0 -1.153865,-0.154683 -1.461716,-0.385571 -1.770143,-1.385329 -0.846935,-4.078227 1.384986,-4.078227 z m -32.478104,2.154209 -1.141366,1.256462 a 35.087533,35.087533 0 0 0 2.697076,2.482232 c -0.399455,-0.880127 -0.850386,-1.883636 -1.093409,-2.430439 z"
     id="path9"
     inkscape:connector-curvature="0" /></svg>