<?xml version="1.0" encoding="UTF-8" standalone="no"?>
<svg
   xmlns:dc="http://purl.org/dc/elements/1.1/"
   xmlns:cc="http://creativecommons.org/ns#"
   xmlns:rdf="http://www.w3.org/1999/02/22-rdf-syntax-ns#"
   xmlns:svg="http://www.w3.org/2000/svg"
   xmlns="http://www.w3.org/2000/svg"
   viewBox="0 0 1000 999.99999"
   height="1000"
   width="1000"
   id="svg10"
   version="1.1">
  <metadata
     id="metadata16">
    <rdf:RDF>
      <cc:Work
         rdf:about="">
        <dc:format>image/svg+xml</dc:format>
        <dc:type
           rdf:resource="http://purl.org/dc/dcmitype/StillImage" />
        <dc:title></dc:title>
      </cc:Work>
    </rdf:RDF>
  </metadata>
  <defs
     id="defs14">
    <filter
       style="color-interpolation-filters:sRGB;"
       id="filter4581"
       width="1.6"
       height="2"
       y="-0.5"
       x="-0.3">
      <feTurbulence
         numOctaves="1"
         baseFrequency="0.002 0.107"
         id="feTurbulence4575" />
      <feColorMatrix
         values="2 0 0 0 0 0 0 0 0 0 0 0 0 0 0 0 0 0 0.5 0.5"
         result="result91"
         id="feColorMatrix4577" />
      <feDisplacementMap
         yChannelSelector="A"
         xChannelSelector="R"
         scale="14.3"
         in="SourceGraphic"
         in2="result91"
         id="feDisplacementMap4579"
         result="fbSourceGraphic" />
      <feColorMatrix
         result="fbSourceGraphicAlpha"
         in="fbSourceGraphic"
         values="0 0 0 -1 0 0 0 0 -1 0 0 0 0 -1 0 0 0 0 1 0"
         id="feColorMatrix4583" />
      <feTurbulence
         id="feTurbulence4585"
         baseFrequency="0.4"
         type="fractalNoise"
         seed="0"
         numOctaves="5"
         result="result1"
         in="fbSourceGraphic" />
      <feDisplacementMap
         in2="result1"
         id="feDisplacementMap4587"
         xChannelSelector="R"
         yChannelSelector="G"
         scale="30"
         in="fbSourceGraphic"
         result="fbSourceGraphic" />
      <feColorMatrix
         result="fbSourceGraphicAlpha"
         in="fbSourceGraphic"
         values="0 0 0 -1 0 0 0 0 -1 0 0 0 0 -1 0 0 0 0 1 0"
         id="feColorMatrix4589" />
      <feTurbulence
         id="feTurbulence4591"
         numOctaves="1"
         baseFrequency="0.002 0.107"
         in="fbSourceGraphic" />
      <feColorMatrix
         id="feColorMatrix4593"
         values="2 0 0 0 0 0 0 0 0 0 0 0 0 0 0 0 0 0 0.5 0.5"
         result="result91" />
      <feDisplacementMap
         in2="result91"
         id="feDisplacementMap4595"
         yChannelSelector="A"
         xChannelSelector="R"
         scale="14.3"
         in="fbSourceGraphic"
         result="fbSourceGraphic" />
      <feColorMatrix
         result="fbSourceGraphicAlpha"
         in="fbSourceGraphic"
         values="0 0 0 -1 0 0 0 0 -1 0 0 0 0 -1 0 0 0 0 1 0"
         id="feColorMatrix4597" />
      <feTurbulence
         id="feTurbulence4599"
         numOctaves="1"
         baseFrequency="0.002 0.107"
         in="fbSourceGraphic" />
      <feColorMatrix
         id="feColorMatrix4601"
         values="2 0 0 0 0 0 0 0 0 0 0 0 0 0 0 0 0 0 0.5 0.5"
         result="result91" />
      <feDisplacementMap
         in2="result91"
         id="feDisplacementMap4603"
         yChannelSelector="A"
         xChannelSelector="R"
         scale="14.3"
         in="fbSourceGraphic"
         result="fbSourceGraphic" />
      <feColorMatrix
         result="fbSourceGraphicAlpha"
         in="fbSourceGraphic"
         values="0 0 0 -1 0 0 0 0 -1 0 0 0 0 -1 0 0 0 0 1 0"
         id="feColorMatrix4605" />
      <feTurbulence
         id="feTurbulence4607"
         numOctaves="1"
         baseFrequency="0.002 0.107"
         in="fbSourceGraphic" />
      <feColorMatrix
         id="feColorMatrix4609"
         values="2 0 0 0 0 0 0 0 0 0 0 0 0 0 0 0 0 0 0.5 0.5"
         result="result91" />
      <feDisplacementMap
         in2="result91"
         id="feDisplacementMap4611"
         yChannelSelector="A"
         xChannelSelector="R"
         scale="14.3"
         in="fbSourceGraphic" />
    </filter>
  </defs>
  <path
     id="path3713"
     d="m 716.90366,153.96308 c -24.02353,0.65673 -44.97269,15.18011 -52.61269,26.02933 -13.2379,18.79865 -24.40956,38.69473 -23.40393,58.30385 1.09349,21.32249 6.45719,40.69302 21.75598,64.48372 15.29876,23.79066 39.15778,36.53104 38.37485,54.15835 -0.74646,16.80571 -15.35515,20.04535 -32.61835,15.72954 -17.26321,-4.31578 -34.52614,-34.52801 -69.05256,-43.15961 -34.52638,-8.6316 -58.30293,-8.63176 -110.09254,-4.31597 -51.78961,4.31581 -103.5817,17.26482 -142.4239,43.15962 -38.84221,25.8948 -54.85846,57.92944 -85.06908,75.19265 -30.21059,17.2632 -151.34312,102.62605 -159.97471,115.57345 -8.631621,12.94739 14.11912,6.20244 11.41073,10.64358 -10.98077,18.00616 -45.64863,42.09981 -45.64863,42.09981 0,0 -5.049291,8.20964 7.759638,13.2377 12.808908,5.02805 42.785372,-10.74621 64.364382,-19.37778 21.57901,-8.63162 34.52599,-12.94789 64.73659,-12.94789 52.84286,-0.0496 109.83233,14.57761 152.87996,14.95953 26.25169,0.12628 39.32002,-15.91362 41.33265,-6.32761 3.65634,17.41481 -9.10342,50.47696 -21.28999,68.28539 -14.51076,21.20477 -23.62723,43.1518 -20.52,52.47348 4.31578,12.9474 -1.34978,21.66285 -5.66559,38.92605 -4.3158,17.26319 -2.48902,55.5501 -2.48902,55.5501 0,0 -1.82548,4.79768 -7.91022,5.30476 -6.08474,0.50705 -5.57733,1.01564 -11.15502,0.50859 -8.55199,0.62407 -15.33191,2.64361 -21.80428,7.6062 -2.02824,1.52118 -17.38059,18.72733 -10.14066,19.26698 12.09452,0.90151 14.70602,-7.60666 18.25547,-9.63492 8.83625,-3.3718 17.35907,-5.60405 25.85885,-5.5775 5.57765,0 22.81645,2.02762 25.85883,3.5488 11.4449,2.17942 13.20471,5.74422 26.36743,7.60622 8.62005,0 10.14356,10e-4 16.73536,-1.52011 6.59181,-1.52118 9.63165,-2.53509 14.19522,1.01435 4.56354,3.54943 14.19977,6.08428 9.12916,-2.0287 -5.07061,-8.113 -8.11309,-9.12654 -13.18371,-10.14066 -5.07063,-1.01413 -14.19921,2.53423 -19.26983,1.5201 -5.07062,-1.01411 -22.30958,-3.04218 -20.28132,-5.5775 2.02825,-2.5353 7.60558,1.01434 11.155,1.01434 3.54943,0 13.68947,1.52011 13.68947,1.52011 0,0 5.57837,-0.50666 3.04307,-4.56316 0,0 -8.11266,-2.53469 -11.15502,-3.5488 -3.04238,-1.01413 -12.17004,-2.53423 -15.21242,-1.52011 -3.04236,1.01413 -9.12522,-0.50642 -10.64641,-3.5488 -0.0422,-0.0842 -0.10635,-0.16454 -0.17901,-0.24152 -0.23995,-2.57977 -0.94433,-5.73665 -1.10812,-9.24565 -1.90791,-40.87669 12.06654,-63.06614 16.49672,-84.04001 3.12445,-14.79225 3.86083,-30.19476 8.73422,-44.50641 4.75584,-13.96648 19.75283,-39.6108 19.75283,-39.6108 0,0 17.04416,-24.78369 30.21174,-30.2089 8.51157,-3.50689 16.46519,-18.64592 27.61761,0.10226 8.63162,17.26321 28.59235,25.79013 32.90814,55.62732 1.95375,13.50721 4.66689,38.18197 12.94789,55.15284 10.55985,21.64096 16.66705,10.25245 45.27356,56.29218 6.51513,15.62394 8.42452,17.15873 8.42452,17.15873 0,0 6.48949,7.8504 4.58873,12.64954 -2.75727,6.96163 -30.88493,28.74317 -30.99879,34.87718 -0.0629,3.38346 11.26313,1.8761 19.71022,-4.69386 8.44708,-6.56994 15.54409,-18.25355 24.92973,-17.31499 9.38566,0.93857 19.75981,9.6369 26.72828,12.29155 0,0 9.05001,3.2682 15.85171,6.96123 6.51302,3.53629 9.82171,9.99198 22.02305,10.93054 12.20133,0.93857 11.26293,1.87709 8.44725,-2.81574 -2.8157,-4.69282 -10.12174,-5.1061 -20.80981,-12.08697 -10.98787,-7.17667 -12.29467,-5.55675 -13.89689,-9.311 7.35724,3.54604 17.26257,13.10984 26.25945,12.01025 10.90447,-1.33274 9.3857,-3.75343 2.81576,-6.56912 -6.56996,-2.81569 -9.38597,10e-4 -16.89448,-7.50677 -7.50851,-7.50853 -18.61313,-12.5153 -25.57187,-17.92872 -8.61788,-4.0861 -7.54874,-0.72596 -12.20062,-10.5498 l -4.3188,-10.15488 C 583.57668,743.7231 569.05187,745.4716 564.92439,723.49108 562.25472,709.274 538.92634,687.61659 538.92634,687.61659 c 0,0 -20.56857,-38.89511 -14.85725,-62.80734 6.13931,-25.70416 -4.7946,-32.59135 1.2445,-48.71723 6.96667,-18.60269 23.40508,-11.99401 53.61567,-33.57303 30.21061,-21.579 31.03338,-25.12215 53.99073,-37.3065 9.68203,-5.13863 14.21839,5.63778 29.33945,-2.48899 27.49399,-14.77661 34.44339,-41.91544 52.66099,-50.54706 24.66684,-11.68729 35.47975,-23.40259 47.47274,-44.69107 12.88519,-22.87223 8.90866,-52.62876 3.07147,-77.97714 -3.43308,-14.90839 -16.81812,-24.82663 -21.6821,-40.45185 -6.51797,-20.9384 -23.75042,-28.54414 -18.40606,-34.16117 21.57899,0 5.80218,-2.6662 35.18972,5.56046 27.72076,7.76006 39.50792,18.30147 68.18311,38.92606 26.68312,19.19184 62.16317,43.07566 83.74217,77.60208 21.579,34.52639 22.14711,29.31073 38.84366,59.83815 6.90934,17.49192 15.88495,53.1221 25.8929,33.57302 0,0 -2.11479,-50.5455 -23.69377,-85.0719 -21.57896,-34.52642 -15.34446,-27.92764 -42.2873,-61.0855 -16.64074,-20.47933 -34.78456,-34.76458 -60.05693,-55.84043 -25.27234,-21.07584 -57.33089,-50.55163 -59.82963,-61.26734 -4.31581,-18.50812 -18.21767,-29.61895 -40.75302,-43.82165 -11.23045,-7.07788 -22.78393,-9.6436 -33.70373,-9.3451 z"
     style="fill:#000000;fill-opacity:1;fill-rule:evenodd;stroke:none;stroke-width:1.81263626px;stroke-linecap:butt;stroke-linejoin:miter;stroke-opacity:1" />
</svg>
