<?xml version="1.0" encoding="UTF-8" standalone="no"?>
<svg
   xmlns:dc="http://purl.org/dc/elements/1.1/"
   xmlns:cc="http://creativecommons.org/ns#"
   xmlns:rdf="http://www.w3.org/1999/02/22-rdf-syntax-ns#"
   xmlns:svg="http://www.w3.org/2000/svg"
   xmlns="http://www.w3.org/2000/svg"
   id="svg8"
   version="1.1"
   viewBox="0 0 200 200"
   height="200mm"
   width="200mm">
  <defs
     id="defs2" />
  <metadata
     id="metadata5">
    <rdf:RDF>
      <cc:Work
         rdf:about="">
        <dc:format>image/svg+xml</dc:format>
        <dc:type
           rdf:resource="http://purl.org/dc/dcmitype/StillImage" />
        <dc:title></dc:title>
      </cc:Work>
    </rdf:RDF>
  </metadata>
  <g
     transform="translate(0,-97)"
     id="layer1">
    <g
       transform="matrix(1.4308792,0,0,1.4308792,-35.690867,-77.490925)"
       id="g1099">
      <path
         style="fill:#cccccc;stroke-width:1.02288425"
         d="m 486.63672,171.98828 c -7.93418,0.21 -14.76694,3.51642 -22.80469,10.64453 -9.17885,8.14001 -24.77316,17.01375 -33.98047,19.33789 -14.49585,3.65908 -16.78573,3.86421 -23.10937,2.06836 -3.26945,-0.92848 -12.1242,-4.76651 -19.67774,-8.52929 l -13.73242,-6.8418 -17.97656,0.0644 c -16.6912,0.0609 -18.89827,0.29912 -30.87695,3.31836 -15.00466,3.78183 -23.9821,7.00578 -34.66211,12.44531 -4.2194,2.14901 -11.12436,4.69406 -15.34375,5.65625 -9.7237,2.21734 -21.72803,8.11485 -37.33594,18.3418 -18.03575,11.81775 -22.11484,14.40502 -26.08399,16.54688 -1.96905,1.06253 -6.11085,3.80106 -9.20507,6.08593 -3.09423,2.28488 -7.25202,5.13773 -9.24024,6.33985 -1.98822,1.20208 -4.97985,3.35995 -6.64844,4.79492 -1.66859,1.43497 -3.30704,2.60869 -3.63867,2.60937 -0.33165,6.8e-4 -1.16943,1.24669 -1.86328,2.76953 -1.30843,2.87169 -3.3799,4.69496 -8.7207,7.67383 -2.1806,1.21622 -2.57897,1.75925 -1.31055,1.78907 1.00219,0.0227 2.09667,0.75794 2.43164,1.63086 0.45413,1.18348 1.42057,1.41743 3.80274,0.91796 l 3.19531,-0.66992 -4.2168,4.45313 c -4.94399,5.22036 -6.32338,10.03865 -3.58203,12.51953 1.00214,0.90693 2.82145,1.65039 4.04297,1.65039 1.22152,0 2.2207,0.44604 2.2207,0.99219 0,1.1088 -6.14155,10.40224 -7.55078,11.42578 -0.49614,0.36019 0.31036,1.44975 1.79102,2.41992 3.23049,2.11672 3.31716,2.96806 0.64648,6.36328 -1.12517,1.43044 -2.04687,4.11077 -2.04687,5.95703 0,2.45598 -0.72958,3.88941 -2.72071,5.33985 -2.3437,1.70728 -2.70569,2.67798 -2.60547,6.99023 0.064,2.75403 -0.60456,7.23921 -1.48632,9.96875 -1.13362,3.50914 -1.31274,5.60639 -0.60938,7.16016 0.5471,1.20858 0.77159,4.86818 0.49805,8.13086 -0.41449,4.94362 -0.15546,6.30574 1.55273,8.18164 1.13753,1.24924 2.28223,4.30096 2.57227,6.85546 1.2189,10.73519 4.85368,13.10636 10.58398,6.9043 v -0.002 c 1.68934,-1.82839 5.07823,-5.99773 7.53125,-9.26563 6.24557,-8.32025 8.59529,-9.9532 14.01953,-9.74804 3.93847,0.14891 4.99771,-0.31352 8.45899,-3.69336 3.49637,-3.41413 4.28922,-3.75322 6.80078,-2.91602 1.56333,0.52109 3.00357,1.43261 3.20117,2.02539 0.19759,0.59278 -1.96019,3.85359 -4.79492,7.2461 -2.83472,3.3925 -5.1543,6.44556 -5.1543,6.78515 0,0.3394 1.33223,0.61719 2.96094,0.61719 1.89022,0 3.83351,-0.96171 5.37109,-2.66016 1.32488,-1.4635 3.2147,-3.53534 4.19922,-4.60351 2.17462,-2.35933 4.70368,-2.51287 5.53906,-0.33594 0.39169,1.02074 -0.73972,2.99532 -3.10156,5.41406 -2.04446,2.09371 -3.71679,4.13105 -3.71679,4.5293 0,1.31323 11.95428,0.75443 15.49414,-0.72461 1.90853,-0.79744 4.33813,-2.40846 5.39843,-3.58008 2.48819,-2.74941 6.08361,-2.72082 7.93164,0.0625 1.4042,2.11484 1.60381,1.93966 5.68946,-4.9375 4.15191,-6.98872 14.94354,-28.53385 17.32617,-34.59179 0.6638,-1.68775 1.89756,-4.21853 2.74219,-5.625 0.84461,-1.40644 3.28373,-6.23954 5.41992,-10.74024 2.13619,-4.50066 4.8405,-9.79465 6.00976,-11.76367 2.31752,-3.9027 4.56057,-12.58091 4.58008,-17.72266 0.007,-1.78548 1.20713,-5.31797 2.66797,-7.84961 1.46084,-2.53164 4.04171,-8.05404 5.73633,-12.27343 1.69462,-4.21943 3.95409,-9.39256 5.01953,-11.4961 1.06545,-2.10353 2.60331,-7.30858 3.41797,-11.5664 1.39036,-7.26679 1.35725,-8.05473 -0.52734,-12.83594 -2.80501,-7.1164 -2.59578,-10.7226 0.81836,-14.13672 3.27373,-3.27379 13.12808,-7.24609 17.97656,-7.24609 5.69133,0 6.07513,1.53473 2.26953,9.09375 -5.59894,11.12107 -6.16557,14.03223 -4.21289,21.65429 0.92573,3.61346 3.20188,9.33493 5.05859,12.71485 1.8567,3.37991 3.92997,7.82337 4.60547,9.87304 1.1726,3.55809 7.30684,9.0586 10.10156,9.0586 0.64801,0 2.87277,-1.15017 4.94532,-2.55664 2.07253,-1.40644 4.48217,-2.55664 5.35546,-2.55664 3.43488,0 15.41258,-8.49667 23.08204,-16.37305 8.35913,-8.58467 13.94651,-12.11792 22.45703,-14.20313 3.77076,-0.9239 5.304,-0.9293 6.39257,-0.0254 1.12509,0.93374 1.43165,0.84097 1.43165,-0.43164 0,-1.63804 8.30181,-4.75648 12.71679,-4.77734 1.16372,-0.004 4.57649,-1.1576 7.58594,-2.55859 3.00945,-1.40096 6.10592,-2.54688 6.87891,-2.54688 0.77295,0 3.37328,-0.86667 5.77929,-1.92773 2.40605,-1.06103 6.06143,-2.64746 8.12305,-3.52344 2.06162,-0.87598 4.04876,-2.53814 4.41602,-3.69531 0.50517,-1.59164 1.53393,-2.10547 4.22265,-2.10547 6.03787,0 19.17713,-3.0729 22.09375,-5.16797 1.63593,-1.17509 4.4399,-1.99219 6.84375,-1.99219 4.53472,0 6.39982,-1.53215 3.12891,-2.57031 -2.56732,-0.81483 -2.20567,-2.33356 1.07031,-4.50195 2.2896,-1.51548 2.40322,-1.50162 1.75,0.20703 -0.99851,2.61214 1.95529,3.43581 4.39648,1.22656 2.39774,-2.1699 1.76684,-3.56641 -1.60937,-3.56641 -1.53747,0 -2.49609,-0.59038 -2.49609,-1.53515 0,-0.97028 0.97714,-1.53321 2.6582,-1.53321 2.92872,0 9.61523,-2.84456 9.61523,-4.08984 0,-0.43287 -0.85941,-1.01234 -1.91015,-1.28711 -2.81859,-0.73708 -3.49638,-6.58365 -0.84375,-7.27734 1.60989,-0.42097 1.8487,-1.0623 1.26367,-3.39453 l -0.72266,-2.875 2.53125,2.375 c 1.39144,1.30677 3.29005,4.36711 4.21875,6.79882 1.44374,3.78044 2.45105,4.74852 6.94922,6.6836 17.67072,17.25984 26.86005,20.50869 11.63086,5.82812 -1.1252,-0.50506 -4.17749,-2.95188 -5.86523,-4.0625 -1.68779,-1.11065 -4.13267,-3.07143 -4.97657,-3.4414 -2.40264,-1.05332 -7.16015,-5.74197 -7.16015,-7.05664 0,-0.65284 -1.95669,-3.29695 -4.34766,-5.875 -3.70325,-3.993 -5.23879,-4.86461 -10.36523,-5.88282 -2.97473,-0.59083 -5.742,-0.86492 -8.38672,-0.79492 z m -3.08789,12.07617 c 1.54046,0 3.97433,4.83862 3.125,6.21289 -1.09085,1.76504 -3.19927,0.95723 -4.4043,-1.6875 -1.2926,-2.83699 -0.81516,-4.52539 1.2793,-4.52539 z m -16.96094,4.3418 c 1.05866,0.13595 1.96872,1.84194 1.55273,3.92187 -0.36064,1.80318 -0.004,3.87 0.90821,5.27735 0.82484,1.27238 1.80028,4.23736 2.16992,6.58789 l 0.67187,4.27344 -5.39257,2.01758 c -3.42437,1.28122 -9.59574,2.29021 -16.90039,2.76367 -6.32826,0.41015 -11.79707,1.21622 -12.15235,1.79101 -0.35524,0.57476 0.23035,1.72829 1.30078,2.5625 1.89287,1.47629 1.89359,1.4978 0.0117,0.84375 -1.29728,-0.4509 -2.39198,-0.0173 -3.32617,1.31641 -0.76569,1.09323 -2.88714,2.30292 -4.71484,2.68945 -1.82774,0.3865 -4.7048,1.51497 -6.39258,2.50781 -1.68775,0.99281 -5.11735,2.11462 -7.6211,2.49219 -2.50371,0.37761 -5.03448,1.05922 -5.625,1.51367 -0.59047,0.45445 -4.9856,2.07736 -9.76757,3.60743 -4.78201,1.53002 -10.64641,3.67083 -13.03125,4.75585 -2.38489,1.08507 -5.02273,1.97266 -5.86133,1.97266 -4.37099,0 -9.76248,3.54295 -14.62695,9.61328 -5.79579,7.23253 -10.34952,9.8509 -22.5625,12.97461 -4.21452,1.0779 -7.81383,1.96094 -7.99805,1.96094 -0.71473,0 -5.96392,-8.99588 -8.86133,-15.1875 -5.52365,-11.80373 -3.53511,-23.28465 5.82617,-33.64649 2.58824,-2.86484 3.69727,-5.05272 3.69727,-7.29296 0,-3.02393 -0.21424,-3.20118 -3.88672,-3.20118 -2.13783,0 -4.33451,-0.44581 -4.88086,-0.99218 -0.54636,-0.54633 -4.4255,-1.48113 -8.62109,-2.07618 -8.59951,-1.21961 -10.74963,-2.44428 -7.06055,-4.02148 4.64705,-1.98671 16.40236,-4.16211 22.49219,-4.16211 5.56457,0 6.18523,0.22553 7.07226,2.55859 0.98612,2.59371 2.48796,3.30058 3.50781,1.6504 0.30831,-0.49883 -0.12521,-1.47667 -0.96289,-2.17188 -2.05762,-1.7077 -1.928,-4.08203 0.22266,-4.08203 4.19696,0 23.1491,3.42169 32.52149,5.87109 5.62586,1.47024 14.91619,4.43276 20.64648,6.58399 12.16611,4.56729 16.22713,4.81173 28.78125,1.73633 8.56996,-2.09938 21.82263,-7.87519 23.20703,-10.11524 1.58944,-2.5717 8.75894,-6.14171 11.13672,-5.54492 1.34094,0.33653 2.73318,0.13438 3.09375,-0.44922 0.43198,-0.69896 0.94457,-0.96219 1.42578,-0.90039 z m -171.40234,20.48828 c 1.74549,-0.0427 2.93746,0.11664 3.18164,0.51172 0.82,1.3268 -1.52962,3.24119 -5.16211,4.20508 -3.8268,1.01541 -4.5143,5.35108 -1.21485,7.66211 2.07718,1.45493 2.16327,1.846 0.91016,4.1875 -1.64297,3.06988 -1.53043,3.20765 5.92969,7.16992 l 5.81836,3.08984 -0.0527,7.67188 c -0.0465,6.87639 -0.50816,8.6253 -4.45312,16.87695 -2.42066,5.06328 -5.00601,10.88004 -5.74414,12.92578 -0.73814,2.04575 -2.05606,5.10161 -2.92969,6.79102 -0.87364,1.68941 -2.30695,6.55113 -3.18555,10.80469 -2.02495,9.80341 -4.02808,14.60374 -6.35351,15.2246 -1.01497,0.27096 -3.84785,4.31659 -6.35742,9.08008 -2.48943,4.72528 -4.86913,8.82799 -5.28907,9.11524 -0.41993,0.28717 -2.20012,3.62443 -3.95508,7.41601 -2.16986,4.68802 -3.76656,6.89258 -4.99023,6.89258 -0.98967,0 -2.41983,0.57604 -3.17773,1.2793 -1.13281,1.05108 -1.24228,0.91416 -0.61524,-0.76758 0.41954,-1.12517 0.99847,-3.7031 1.28711,-5.72852 0.71393,-5.00991 -1.61836,-5.81487 -5.40234,-1.86523 -1.58541,1.65479 -3.94756,2.99023 -5.28516,2.99023 -1.77305,0 -2.77198,0.88658 -3.74805,3.32422 -2.34224,5.84965 -2.56208,6.29027 -6.24023,12.53125 -1.98939,3.3755 -4.64366,8.26231 -5.89844,10.85938 -2.23176,4.61926 -2.36714,4.7097 -6.2832,4.18945 -3.7305,-0.49561 -4.26521,-0.22394 -7.84375,3.97266 -2.11203,2.47684 -4.18997,4.15376 -4.61719,3.72656 -0.42721,-0.42724 0.39681,-2.03882 1.83008,-3.58008 1.43327,-1.54125 3.44755,-4.12634 4.47656,-5.74609 1.85547,-2.92067 1.8502,-2.9611 -0.63476,-4.80664 -1.37814,-1.0235 -3.29788,-2.56187 -4.26563,-3.41797 -1.61005,-1.42432 -2.12759,-1.13022 -6.08398,3.46289 -4.83778,5.6163 -7.21024,5.86991 -3.83594,0.41016 3.29353,-5.32902 1.60811,-5.32861 -3.79688,0 -2.64353,2.60621 -5.33182,4.73828 -5.97265,4.73828 -0.64083,0 -2.75069,1.65497 -4.68945,3.67773 -1.93877,2.02277 -5.44907,5.0144 -7.80079,6.64844 -4.59572,3.19328 -5.4414,3.50652 -5.4414,2.01172 0,-1.42991 10.87826,-15.55744 20.86914,-27.10352 8.57866,-9.914 9.83953,-11.83008 7.79687,-11.83008 -1.30457,0 -13.60564,10.57236 -24.67968,21.21094 -4.83943,4.64912 -9.09644,8.45313 -9.46094,8.45313 -0.36451,0 -0.66406,-1.34874 -0.66406,-2.99805 0,-3.82216 3.4698,-7.82296 22.67773,-26.15234 8.25247,-7.87503 14.85435,-14.46589 14.67188,-14.64844 -1.03195,-1.03193 -22.07359,14.79604 -33.86524,25.47461 -5.75526,5.21197 -6.97668,5.79781 -8.14453,3.9082 -0.92344,-1.4942 5.35104,-7.84126 22.36719,-22.625 7.76969,-6.75031 13.89848,-12.50194 13.61914,-12.78125 -0.27935,-0.27934 -7.25027,3.68643 -15.49024,8.81445 -21.17739,13.17948 -16.34068,7.64667 13.84961,-15.8457 8.45714,-6.58084 15.1753,-12.16846 14.92774,-12.41602 -0.24756,-0.24759 -1.63228,0.32544 -3.07617,1.27149 -3.09736,2.02949 -10.54223,3.86819 -12.00391,2.96484 -0.56283,-0.34786 0.84814,-2.23414 3.13476,-4.1914 2.45145,-2.09832 4.15626,-4.45477 4.15626,-5.74219 0,-1.20083 1.26734,-3.27337 2.81445,-4.60547 2.10995,-1.81663 2.30013,-2.23526 0.76562,-1.67578 -18.87721,6.88275 -24.03711,8.29853 -24.03711,6.5957 0,-0.52478 2.18709,-2.18994 4.85938,-3.69922 9.58745,-5.41489 12.62678,-7.69342 13.56836,-10.16992 1.13164,-2.97645 0.80614,-2.92226 5.59375,-0.92187 3.17479,1.3265 3.73426,2.00256 3.3457,4.03515 l -0.4668,2.44141 3.6836,-1.9668 c 5.07619,-2.70909 7.75594,-4.92763 6.9375,-5.74609 -0.3785,-0.37848 -1.86351,-0.15397 -3.29883,0.5 -3.38914,1.5442 -3.21649,1.61242 -3.81445,-1.51563 -0.55503,-2.90343 0.97428,-7.19996 4.31836,-12.12695 2.69561,-3.9716 2.63241,-4.60351 -0.46094,-4.60351 -2.97641,0 -2.98894,-0.0524 -1.17383,-4.39649 1.94206,-4.64795 8.45724,-10.18423 11.02539,-9.36914 1.48913,0.47263 3.18175,-0.53138 6.51172,-3.86133 2.47433,-2.47434 5.71671,-5.05339 7.20703,-5.73242 3.56441,-1.62406 9.67383,-6.31107 9.67383,-7.42188 0,-1.18393 -6.10688,0.008 -8.88281,1.73438 -1.22926,0.76437 -3.36938,2.43414 -4.75586,3.71094 -4.23642,3.90126 -12.70112,9.99414 -13.88477,9.99414 -1.99566,0 -1.19243,-1.55911 2.71875,-5.2793 4.07003,-3.87129 15.35955,-11.72733 18.39258,-12.79883 0.99573,-0.35176 2.7303,-1.43188 3.85547,-2.40039 1.12517,-0.96854 3.2512,-2.39586 4.72461,-3.17187 1.47341,-0.77605 4.46504,-2.36993 6.64844,-3.54102 2.18339,-1.17108 6.7319,-2.69958 10.10742,-3.39648 3.37551,-0.69695 7.74774,-1.67023 9.71679,-2.16407 4.15272,-1.04154 8.59866,-1.67485 11.50782,-1.74609 z m 126.11133,48.20313 c -0.68285,0.005 0.0132,0.87829 2.45703,2.61914 1.72017,1.22483 3.1289,2.61144 3.1289,3.08203 0,0.47055 -2.43506,2.2311 -5.41015,3.91015 -2.9751,1.67902 -6.54281,4.27384 -7.92774,5.76758 -1.38493,1.49379 -3.79672,3.40555 -5.36133,4.24805 -1.78934,0.96351 -3.74638,3.57194 -5.27539,7.0293 -3.03647,6.86604 -8.75781,10.55146 -8.75781,5.64257 0,-3.40274 -4.17116,-4.25963 -13.88281,-2.85546 -4.70819,0.68073 -8.87002,0.92685 -9.24805,0.54882 -2.20962,-2.20966 7.18302,-5.59075 13.66797,-4.91992 2.60557,0.26948 3.1377,-1.69571 0.71094,-2.62695 -2.72474,-1.04557 -17.08985,1.80311 -22.23828,4.41015 -5.51335,2.79183 -7.01473,5.14669 -4.4668,7.00977 2.46671,1.8037 2.15278,2.21764 -2.21484,2.91602 -5.24678,0.83901 -10.47121,4.50091 -12.9375,9.06836 -2.28068,4.22373 -1.7526,5.611 1.47656,3.88281 1.20284,-0.64373 2.96432,-1.02078 3.91406,-0.83789 1.04145,0.20069 -0.90798,1.67841 -4.91211,3.72461 -11.98449,6.12431 -13.0647,8.58564 -4.59765,10.48047 5.00476,1.12002 5.83718,1.06285 7.58789,-0.52149 3.53473,-3.19892 14.45321,-7.75 18.59179,-7.75 6.51504,0 5.16718,1.58074 -7.90625,9.26758 -2.44902,1.43996 -5.72045,3.8008 -7.26953,5.24609 -1.5491,1.44529 -4.48441,3.39799 -6.52148,4.33985 -4.10293,1.89698 -7.74306,7.4906 -6.67969,10.26172 0.57469,1.4976 1.48369,1.65128 6.04101,1.02539 2.95112,-0.40528 8.35882,-2.11117 12.01563,-3.79102 14.65202,-6.73085 17.50724,-7.82752 18.95117,-7.27344 2.91795,1.11973 1.55902,4.87033 -2.8789,7.94532 -2.3909,1.6566 -3.73815,3.17386 -3.0293,3.41015 2.36776,0.78924 1.33321,4.26512 -1.74219,5.85547 -1.65982,0.85833 -3.70932,1.56055 -4.55469,1.56055 -2.27841,0 -6.74609,2.22461 -6.74609,3.35937 0,1.39015 6.15301,0.012 8.19531,-1.83789 0.92508,-0.8372 2.42592,-1.52148 3.33399,-1.52148 0.90807,0 3.24646,-0.94274 5.19726,-2.09375 l 3.54688,-2.0918 0.57226,2.85938 c 0.8174,4.09088 0.85454,16.99241 0.0742,25.37695 -0.64414,6.92311 -0.56448,7.27881 2.24805,10.10937 1.60312,1.61337 4.87075,3.77566 7.26172,4.80664 2.77882,1.19823 4.35193,2.53376 4.35937,3.70118 0.0265,4.05683 5.64168,12.99994 10.1211,16.11718 2.90139,2.01907 4.95137,4.42455 5.75781,6.75391 2.25486,6.51307 5.4789,11.96336 8.51953,14.4043 1.64281,1.31883 4.24528,4.91348 5.7832,7.98828 3.42327,6.84423 8.32452,13.08455 10.92578,13.91015 1.06625,0.33827 4.3779,4.37376 7.35938,8.96875 5.86269,9.03531 8.19178,11.51849 11.34961,12.09766 1.13824,0.20863 4.12331,3.45296 6.77344,7.36133 7.42972,10.9573 11.85675,14.90432 16.76367,14.94922 3.97088,0.0378 4.18947,0.22708 7.41601,6.42773 3.05594,5.87293 10.63555,15.08399 12.41211,15.08399 0.41277,0 1.54336,-0.58149 2.51367,-1.29102 v -0.002 c 1.65774,-1.21213 1.60906,-1.88927 -0.81445,-11.2168 -1.41853,-5.45972 -2.70018,-12.53992 -2.84765,-15.73437 l -0.26758,-5.8086 6.64844,-2.18359 c 8.32233,-2.73509 8.83142,-3.06216 10.96874,-7.04688 l 1.74805,-3.25976 0.54688,3.58008 c 0.52346,3.43305 0.7558,3.60553 5.66015,4.20507 6.04347,0.73886 8.69336,-0.89763 8.69336,-5.36718 0,-4.07736 4.2367,-5.13378 7.66602,-1.91211 l 2.4375,2.28906 -1.54492,-6.51172 c -1.90617,-8.0315 -6.43767,-30.92159 -11.20313,-56.59766 -3.90777,-21.05506 -6.00875,-29.63629 -10.15625,-41.46289 -1.47972,-4.21939 -3.53732,-10.89391 -4.57226,-14.83203 -5.4697,-20.81261 -14.32927,-42.72742 -21.41993,-52.98437 -6.71875,-9.71902 -7.48252,-10.37335 -22.06836,-18.94531 -6.75103,-3.96756 -16.27515,-9.77448 -21.16601,-12.9043 -4.89086,-3.12979 -9.45699,-5.69141 -10.14649,-5.69141 -0.68949,0 -3.75464,-1.41009 -6.81054,-3.13476 -3.07508,-1.73547 -5.13747,-2.59902 -5.82031,-2.59375 z m -60.51172,16.19726 c -0.73932,0.001 -1.68731,0.10215 -2.83985,0.31836 -3.63779,0.68247 -7.20791,4.0224 -6.14258,5.7461 0.74321,1.20253 0.89689,1.16198 6.70508,-1.78126 4.78367,-2.42408 5.48104,-4.28826 2.27735,-4.2832 z m 134.06072,127.16406 c -3.4704,-2.27391 -5.56691,-2.00557 -5.58203,0.7129 -0.008,1.26583 -0.30979,3.40792 -0.67187,4.76171 -0.46179,1.72593 -0.30475,2.24351 0.52539,1.73047 0.65121,-0.40248 1.18359,-1.85522 1.18359,-3.22851 0,-3.00737 1.59304,-3.31436 2.3418,-0.45117 0.62604,2.39395 3.59584,2.73555 4.44922,0.51171 0.99817,-2.60114 3.47195,-1.70291 4.92578,1.78907 0.9027,2.16816 1.43103,8.12856 1.51758,17.13476 0.0729,7.59492 0.27945,16.10893 0.45898,18.92188 0.45029,7.04814 -1.36118,23.21497 -2.79687,24.96289 -0.6488,0.78965 -1.03393,2.28945 -0.85743,3.33203 0.17666,1.04258 -0.39938,2.17225 -1.27929,2.50976 -0.87988,0.33767 -1.59961,1.71428 -1.59961,3.06055 0,1.34627 -0.50845,2.44727 -1.13086,2.44727 -0.80818,0 -0.99389,-6.29983 -0.64844,-21.99024 0.46148,-20.95755 0.39338,-21.99218 -1.42578,-21.99218 -2.55141,0 -2.44598,-2.76038 0.13672,-3.58008 1.81561,-0.57631 2.04687,-1.54817 2.04687,-8.63868 0,-8.58576 -1.22492,-11.00926 -4.96484,-9.82226 -1.79074,0.56836 -2.06,1.95936 -2.64844,13.63867 -0.36041,7.15268 -1.09018,13.69517 -1.62109,14.53906 -2.05966,3.27387 -5.08594,9.64383 -5.08594,10.70508 0,0.61315 -0.80652,1.83766 -1.79102,2.72071 -0.98452,0.88308 -2.33766,2.48045 -3.00781,3.55078 -1.12592,1.79852 -1.22374,1.73877 -1.27929,-0.79688 -0.0331,-1.50905 1.51716,-11.63606 3.44336,-22.5039 1.92619,-10.86785 3.98412,-24.11233 4.57421,-29.4336 1.0565,-9.52671 1.03169,-9.74689 -1.63476,-14.29687 -1.57924,-2.69477 -2.89918,-4.0484 -3.16602,-3.24805 -0.2516,0.75485 -0.0108,1.6647 0.53516,2.02148 0.54595,0.3569 1.29071,3.24215 1.6543,6.41211 0.58064,5.05988 0.43042,5.82449 -1.22657,6.25782 -1.53328,0.40093 -2.01771,1.91018 -2.58203,8.04492 -1.00267,10.90012 -2.55397,15.81745 -8.30664,26.32812 -5.32925,9.73705 -8.18164,11.74157 -8.18164,5.75 0,-1.89161 -0.48537,-2.94975 -1.2793,-2.79101 -1.9593,0.39186 -1.53437,-2.85092 1.2793,-9.77539 1.40648,-3.46133 2.55664,-7.30243 2.55664,-8.53516 0,-1.23269 0.61567,-2.96728 1.36719,-3.85547 0.75148,-0.88815 2.88898,-6.95683 4.75195,-13.48437 l 3.38867,-11.86719 -2.2207,-2.2207 c -2.52639,-2.52639 -2.73811,-2.19932 -3.58594,5.5 -0.97406,8.84568 -4.15418,17.13089 -5.39843,14.06445 -0.73369,-1.80817 -2.45344,-1.59989 -1.75782,0.21289 1.28493,3.34843 -6.44073,18.29654 -13.50195,26.125 -1.26864,1.40647 -3.49483,4.81058 -4.94727,7.56445 -3.27783,6.21483 -4.55391,7.7793 -6.34961,7.7793 -1.90352,0 -1.77174,-0.97547 0.625,-4.60352 3.37588,-5.11022 3.86514,-5.98367 5.66797,-10.11718 1.15197,-2.64152 1.57946,-5.61398 1.26953,-8.83985 -0.28267,-2.94168 0.0597,-5.81179 0.86915,-7.27148 0.73553,-1.32643 1.3561,-3.30171 1.375,-4.39063 0.0199,-1.08892 0.94687,-2.95127 2.06054,-4.13672 1.85159,-1.97094 8.16572,-14.02251 10.38086,-19.81445 0.90286,-2.36073 0.85818,-2.35422 -2.41992,0.39063 -1.83587,1.53721 -4.25765,4.53929 -5.38281,6.66992 -9.03304,17.10508 -9.91471,18.48382 -12.41797,19.43555 -2.14897,0.81702 -2.41013,1.27598 -1.41211,2.47851 2.75807,3.32326 -1.78207,12.51496 -7.5293,15.24219 -2.0516,0.97357 -3.72562,2.5323 -3.75586,3.49804 -0.0303,0.95812 -1.46218,-1.17108 -3.18164,-4.73242 l -3.12695,-6.47656 2.55273,-2.73047 c 3.94761,-4.22234 6.25911,-9.44541 6.41407,-14.49414 0.11501,-3.75144 1.07035,-5.90654 5.16211,-11.64844 8.94999,-12.5594 12.6914,-18.20224 12.6914,-19.14062 0,-1.89097 -2.16481,-0.80007 -5.97461,3.00976 -5.14284,5.14281 -10.24213,12.97508 -15.36328,23.59571 -4.10797,8.51943 -9.53214,15.43554 -12.10547,15.43554 -1.87725,0 -1.71707,-6.59324 0.19922,-8.18359 2.45352,-2.03626 1.95121,-4.35545 -0.76562,-3.53125 -2.46131,0.74657 -2.64198,0.76994 -4.60352,0.58398 -1.91305,-0.18122 -1.54146,-3.28602 0.67969,-5.68164 1.89694,-2.04593 8.26953,-13.05585 8.26953,-14.2871 0,-2.04496 -4.42288,0.20996 -11.00391,5.61132 -4.16904,3.42176 -7.79106,6.00972 -8.04883,5.75196 -1.43773,-1.43777 3.70147,-8.2956 9.00196,-12.01368 5.57291,-3.90916 8.83034,-7.6579 7.66601,-8.82226 -0.27806,-0.27806 -1.63475,0.23318 -3.01367,1.13672 -3.28513,2.15248 -17.00799,5.93634 -18.89844,5.21094 -1.07108,-0.41103 0.23134,-2.48938 4.76368,-7.60157 3.43041,-3.86936 6.23632,-7.31748 6.23632,-7.66406 0,-1.42454 -3.27807,-0.39247 -12.61914,3.97266 -5.41757,2.53164 -10.26849,4.60156 -10.77929,4.60156 -1.60429,0 -2.23759,-4.87463 -1.22071,-9.40039 0.61284,-2.7275 1.95122,-5.05886 3.5918,-6.25391 3.1471,-2.29251 3.31982,-4.95613 0.5625,-8.68555 -1.91134,-2.58527 -1.95695,-3.1481 -0.6543,-8.16992 1.19819,-4.61915 1.1924,-5.50958 -0.0469,-6.20312 -1.03272,-0.57797 -1.54995,-3.42627 -1.80469,-9.94531 -0.19646,-5.02394 -1.07161,-10.9762 -1.94531,-13.22657 -0.87375,-2.25033 -1.60831,-4.83959 -1.63477,-5.75586 -0.0523,-1.9423 3.76761,-3.59009 9.96875,-4.29882 5.88752,-0.67291 9.72693,-3.22624 8.87696,-5.9043 -0.95817,-3.0189 7.29354,-13.11114 10.41406,-13.41211 35.81291,-41.33731 93.30268,31.63067 89.80276,110.23437 z m -239.26385,-65.9414 c 0.54212,-0.0187 0.94944,0.0412 1.0918,0.18359 0.44623,0.44621 -2.01445,6.77945 -9.62695,24.7793 -3.78716,8.95476 -10.87989,13.57766 -13.45313,8.76953 -0.58238,-1.0882 -1.06055,-2.6052 -1.06055,-3.37305 0,-0.76785 4.2023,-7.71044 9.33789,-15.42578 6.62014,-9.94564 10.05698,-14.20835 11.81055,-14.64844 0.68017,-0.17064 1.35827,-0.26643 1.90039,-0.28515 z m 139.82227,32.69726 c -3.10788,-0.0553 -6.44413,0.13048 -8.15821,0.58985 -2.51285,0.6734 -3.15753,2.42383 -0.89257,2.42383 0.77495,0 1.98125,0.69126 2.68164,1.53515 1.54669,1.86312 1.40172,1.86348 7.45312,0.0274 6.42569,-1.94971 7.44175,-2.61339 5.69727,-3.71875 -0.79546,-0.5041 -3.67338,-0.80209 -6.78125,-0.85743 z m -158.18164,5.06055 c 0.89077,0 1.43753,0.54678 1.21484,1.21484 -0.63221,1.89665 -2.83398,2.21061 -2.83398,0.4043 0,-0.89076 0.72838,-1.61914 1.61914,-1.61914 z m 213.79101,89.20899 c 0.48615,0.004 0.54953,1.73839 0.84375,7.62304 0.0915,1.8296 -1.1989,2.52319 -3.19922,1.71875 -1.54563,-0.62158 -0.61791,-6.38029 1.36914,-8.5 0.45657,-0.4871 0.76535,-0.8435 0.98633,-0.84179 z m 21.57813,17.48437 c 1.24326,0.33721 3.76895,11.53925 2.86132,13.00781 -0.33932,0.54905 -1.73998,0.99805 -3.11328,0.99805 -2.27164,0 -2.4875,-0.39073 -2.39453,-4.3457 0.12476,-5.32018 1.14008,-9.19446 2.53125,-9.65821 0.0373,-0.0124 0.0751,-0.0128 0.11524,-0.002 z"
         transform="matrix(0.26458333,0,0,0.26458333,0,97)"
         id="path883" />
      <path
         id="path879"
         d="m 138.83624,238.12394 c -1.60747,-1.92304 -2.56865,-4.2556 -2.84501,-6.90412 -0.14527,-1.39222 -0.25398,-1.84915 -0.27577,-1.15908 -0.10086,3.19498 -0.97928,6.84467 -1.64741,6.84467 -0.86254,0 -2.13798,-2.67301 -3.09928,-6.49532 -0.39307,-1.56293 -0.74228,-3.49857 -0.77601,-4.30142 l -0.0613,-1.45971 1.75915,-0.57823 c 2.202,-0.7238 2.33668,-0.81034 2.90217,-1.8646 l 0.46259,-0.86241 0.14442,0.94723 c 0.1385,0.90833 0.20001,0.95403 1.49762,1.11266 1.599,0.19549 2.30043,-0.23752 2.30043,-1.42009 0,-0.59526 0.15389,-0.80344 0.69421,-0.93905 1.69609,-0.42569 2.76879,2.06907 3.76443,8.75491 0.76306,5.124 0.46254,5.71014 -1.76357,3.4397 l -1.20656,-1.23059 -0.13532,3.57676 c -0.0792,2.09248 -0.25099,3.61505 -0.41405,3.66903 -0.1533,0.0508 -0.73862,-0.4579 -1.3007,-1.13034 z m -84.691099,-29.0266 c -0.234749,-0.26049 -0.510402,-0.80853 -0.612563,-1.21787 -0.219116,-0.87798 -0.222026,-0.87863 -1.242007,-0.27611 -1.249953,0.73836 -1.982321,0.0313 -2.667333,-2.57527 -0.297451,-1.13183 -0.326985,-1.15574 -1.220643,-0.98809 -0.881463,0.16537 -0.925978,0.13273 -1.186624,-0.86989 -0.148943,-0.57293 -0.354742,-1.62918 -0.457332,-2.34721 -0.170708,-1.19477 -0.119238,-1.37842 0.606776,-2.1651 0.436317,-0.47278 1.32433,-1.56703 1.97336,-2.43166 1.652473,-2.2014 2.273983,-2.63359 3.709147,-2.57931 1.042052,0.0394 1.322438,-0.083 2.238234,-0.97725 0.925082,-0.90332 1.134486,-0.99314 1.799002,-0.77163 0.41363,0.13787 0.794829,0.37901 0.847111,0.53585 0.05228,0.15684 -0.518594,1.01958 -1.268616,1.91718 -0.750019,0.8976 -1.363672,1.70551 -1.363672,1.79536 0,0.0898 0.352579,0.16335 0.783508,0.16335 0.50012,0 1.01403,-0.25464 1.42085,-0.70402 0.350539,-0.38722 0.85047,-0.93526 1.110959,-1.21788 0.575368,-0.62424 1.244597,-0.66478 1.465627,-0.0888 0.103633,0.27007 -0.195506,0.7923 -0.82041,1.43226 -0.540932,0.55396 -0.983515,1.09341 -0.983515,1.19878 0,0.34746 3.163089,0.19928 4.099675,-0.19205 0.504965,-0.21099 1.147649,-0.63724 1.428187,-0.94723 1.206064,-1.33269 2.806734,-0.1132 1.964016,1.49631 -0.585878,1.11897 -4.099613,4.85116 -5.427039,5.76446 -0.708923,0.48775 -1.52162,1.45239 -2.19799,2.60893 -2.255607,3.85691 -3.024571,4.51783 -3.998708,3.43688 z m 7.659676,-14.66432 c -0.154088,-0.28792 -0.280159,-0.68971 -0.280159,-0.89287 0,-0.20316 1.11174,-2.03959 2.470533,-4.08094 1.751578,-2.63145 2.660977,-3.75936 3.124942,-3.8758 0.359925,-0.0903 0.716044,-0.10262 0.791373,-0.0273 0.118066,0.11806 -0.532938,1.79375 -2.547081,6.55621 -1.002018,2.36928 -2.878772,3.59283 -3.559608,2.32068 z m 32.744836,-0.82537 c -0.59919,-0.089 -1.04466,-0.35001 -1.22844,-0.71973 -0.15859,-0.31904 -0.42505,-0.7453 -0.59213,-0.94724 -0.16708,-0.20193 -0.345008,-0.73028 -0.39539,-1.17409 -0.07113,-0.62653 -0.273122,-0.86127 -0.903522,-1.04997 -2.892683,-0.86588 -6.503267,-3.29145 -7.00038,-4.70282 -0.307415,-0.87278 0.169712,-1.83292 1.514626,-3.04793 l 1.048512,-0.94723 h -3.285712 c -3.079299,0 -3.316641,-0.0382 -3.778,-0.60795 -0.279686,-0.3454 -0.430883,-0.84275 -0.350103,-1.15165 0.195038,-0.74583 -0.378363,-1.35274 -1.278048,-1.35274 -0.411836,0 -1.030371,-0.22801 -1.37452,-0.50668 -0.595155,-0.48193 -0.609842,-0.57549 -0.300619,-1.91512 0.178808,-0.77464 0.326571,-1.79495 0.328365,-2.26736 0.0019,-0.47241 0.319499,-1.40697 0.706014,-2.07679 0.386514,-0.66983 1.069602,-2.13128 1.517971,-3.24766 0.448369,-1.11638 1.04586,-2.48516 1.327759,-3.04172 0.281899,-0.55656 0.688898,-1.93365 0.904443,-3.0602 0.367867,-1.92267 0.359323,-2.13092 -0.139309,-3.39596 -0.742157,-1.88287 -0.686947,-2.83737 0.216376,-3.74069 0.866177,-0.86618 3.473697,-1.91717 4.756524,-1.91717 1.505831,0 1.607204,0.40636 0.600305,2.40635 -1.481386,2.94245 -1.631241,3.71275 -1.114596,5.72942 0.244933,0.95606 0.847266,2.46997 1.33852,3.36424 0.491251,0.89427 1.039415,2.06966 1.218142,2.61197 0.310249,0.94141 1.933203,2.39695 2.672641,2.39695 0.171452,0 0.76039,-0.30447 1.308752,-0.6766 0.548359,-0.37212 1.186069,-0.67659 1.417129,-0.67659 0.90881,0 4.07764,-2.24767 6.10685,-4.33163 2.206207,-2.26573 3.690657,-3.20656 5.921277,-3.75286 l 1.2923,-0.31649 2.63196,2.34599 c 1.44757,1.2903 3.28587,2.84076 4.08509,3.44547 1.78027,1.34699 1.38531,1.61164 -0.67223,0.45043 -1.66157,-0.93773 -2.23961,-0.94835 -0.93181,-0.0171 0.45513,0.32407 0.8275,0.6911 0.8275,0.8156 0,0.12451 -0.64404,0.58985 -1.4312,1.0341 -0.78716,0.44424 -1.73102,1.13108 -2.09745,1.52631 -0.36643,0.39522 -1.00494,0.90097 -1.41891,1.12388 -0.47343,0.25493 -0.99127,0.94482 -1.39582,1.85958 -0.8034,1.81664 -2.31704,2.79224 -2.31704,1.49343 0,-0.90031 -1.10365,-1.12744 -3.67319,-0.75592 -1.245707,0.18011 -2.346757,0.24565 -2.446777,0.14563 -0.58463,-0.58464 1.900757,-1.47922 3.616567,-1.30173 0.68939,0.0713 0.83005,-0.44916 0.18797,-0.69555 -0.72092,-0.27664 -4.521897,0.47718 -5.884087,1.16696 -1.45874,0.73867 -1.85561,1.36164 -1.18147,1.85458 0.65265,0.47723 0.56923,0.58702 -0.58637,0.77181 -1.38821,0.22199 -2.770217,1.1907 -3.422758,2.39917 -0.603428,1.11752 -0.46389,1.48466 0.390491,1.02741 0.318251,-0.17032 0.784233,-0.27008 1.035518,-0.22169 0.275549,0.0531 -0.240289,0.44425 -1.299715,0.98564 -3.170897,1.62038 -3.45655,2.27162 -1.21631,2.77297 1.324178,0.29634 1.544653,0.28118 2.007861,-0.13801 0.935233,-0.84639 3.823703,-2.05054 4.918703,-2.05054 1.72377,0 1.36708,0.41805 -2.09193,2.45186 -0.64797,0.38099 -1.51347,1.00558 -1.92333,1.38798 -0.409866,0.3824 -1.186184,0.89915 -1.72516,1.14835 -1.085567,0.50191 -2.049104,1.9817 -1.767754,2.71489 0.152053,0.39624 0.392891,0.43715 1.598684,0.27155 0.780815,-0.10723 2.21128,-0.55863 3.17881,-1.00309 3.87668,-1.78087 4.63251,-2.07092 5.01455,-1.92432 0.77204,0.29626 0.4124,1.2887 -0.7618,2.10229 -0.63259,0.43831 -0.98919,0.83961 -0.80164,0.90213 0.62647,0.20882 0.35305,1.12828 -0.46065,1.54906 -0.43916,0.2271 -0.98147,0.41291 -1.20514,0.41291 -0.60283,0 -1.78532,0.58894 -1.78532,0.88918 0,0.36781 1.6283,0.003 2.16866,-0.48644 0.24476,-0.22151 0.6416,-0.40274 0.88186,-0.40274 0.24026,0 0.85502,-0.24674 1.36614,-0.5483 l 0.9293,-0.5483 0.16503,0.61595 c 0.0908,0.33878 0.16668,1.29668 0.16872,2.12865 l 0.004,1.51269 -2.09745,0.52144 c -1.15359,0.28679 -2.52049,0.45859 -3.03754,0.38178 z m 0.30539,-23.16513 c 1.55776,-0.78938 1.47778,-1.35394 -0.14858,-1.04884 -0.9625,0.18057 -1.90707,1.06407 -1.6252,1.52013 0.19664,0.31817 0.23703,0.30744 1.77378,-0.47129 z m -62.533747,21.1618 c -0.242037,-0.29164 -0.128905,-0.72682 0.508139,-1.95467 0.932563,-1.79742 0.968365,-1.91957 0.432231,-1.47462 -0.511059,0.42414 -3.401669,0.72615 -3.401669,0.35541 0,-0.15241 0.490171,-0.68705 1.089272,-1.18808 0.599101,-0.50103 1.786526,-1.56134 2.638722,-2.35625 0.852196,-0.79491 1.914811,-1.60699 2.361364,-1.80464 0.446552,-0.19764 1.172358,-0.73755 1.612897,-1.19979 0.440542,-0.46225 1.353946,-1.00796 2.029786,-1.21269 0.675843,-0.20473 1.817389,-0.62812 2.536773,-0.94087 1.567105,-0.68129 2.671948,-0.72197 3.573037,-0.13155 0.785936,0.51497 0.829612,0.82921 0.210359,1.51347 -0.251195,0.27757 -0.525217,1.01337 -0.608936,1.63511 -0.122385,0.90889 -0.31135,1.21148 -0.964135,1.54391 -0.446552,0.2274 -1.481743,0.80056 -2.300424,1.2737 -0.81868,0.47313 -1.853871,0.94631 -2.300424,1.05152 -1.44121,0.33954 -3.56569,1.71918 -4.610182,2.99384 -1.148496,1.40159 -2.032674,2.27136 -2.308985,2.27136 -0.102555,0 -0.326579,-0.16882 -0.497825,-0.37516 z M 43.35738,172.85757 c -0.204288,-0.24633 -0.767242,-0.61333 -1.251008,-0.81555 -1.295634,-0.54158 -1.111882,-1.07764 0.486937,-1.42053 1.923209,-0.41245 2.950795,-0.37096 3.141828,0.12687 0.120155,0.31312 0.376116,0.37485 1.006397,0.2427 l 0.84526,-0.17721 -1.206562,1.2458 c -1.300822,1.34313 -2.342635,1.61813 -3.022852,0.79792 z m 105.44806,-12.76908 c 0.16424,0.25932 0.32849,0.51865 0.49273,0.77797 0.59906,0.94586 0.51275,2.24872 -0.15739,2.37582 -0.41811,0.0793 -2.23731,-3.71355 -1.59657,-2.70579 l -0.76855,-3.46933 z m -3.58594,-2.38286 c -0.55077,-0.80356 -1.16707,-1.52412 -1.89447,-2.02585 -0.70704,-0.47967 -1.62979,-1.15535 -2.05055,-1.50151 -1.15557,-0.73294 -2.28783,-1.21009 -3.50055,-1.91954 0,0 -0.82131,-0.41067 -1.60003,-0.51569 -0.7337,-0.36301 -1.42812,-0.33284 -1.64827,-0.16624 -0.6878,0.52049 -6.08589,1.70143 -7.77723,1.70143 -0.61392,0 -0.61388,-2.7e-4 0.0739,-0.54128 0.42978,-0.33806 1.09792,-0.54127 1.77968,-0.54127 1.2114,0 1.71158,-0.40405 0.84189,-0.68008 -0.67927,-0.21559 -0.58379,-0.61751 0.28298,-1.19123 0.60579,-0.40097 0.63618,-0.39738 0.46335,0.0547 -0.26419,0.69113 0.5169,0.90924 1.1628,0.32471 0.6344,-0.57412 0.46766,-0.94389 -0.42563,-0.94389 -0.40679,0 -0.66062,-0.15598 -0.66062,-0.40595 0,-0.25672 0.25857,-0.40596 0.70335,-0.40596 0.77489,0 2.54431,-0.75235 2.54431,-1.08183 0,-0.11453 -0.22746,-0.26771 -0.50547,-0.34041 -0.74575,-0.19502 -0.92519,-1.74203 -0.22335,-1.92557 0.42595,-0.11138 0.48912,-0.28109 0.33433,-0.89816 l -0.19109,-0.76072 0.66963,0.62852 c 0.36815,0.34575 0.87041,1.15506 1.11613,1.79845 0.38199,1.00024 0.64852,1.25661 1.83866,1.7686 1.33975,0.57634 4.8963,2.83491 6.09985,3.84752 0.86218,0.96016 1.59145,1.47623 2.1484,2.28396 0.58836,0.72123 1.54987,1.81706 1.97416,2.79882 2.02978,3.02133 2.28651,5.91463 2.36512,6.17512 0.20515,0.67979 -2.82882,-4.31991 -3.92127,-5.53669 z m -17.61914,-10.80768 c -0.342,-0.75062 -0.21567,-1.19759 0.33849,-1.19759 0.40758,0 1.05157,1.2805 0.82685,1.64411 -0.28862,0.467 -0.84651,0.25323 -1.16534,-0.44652 z"
         style="fill:#47453f;stroke-width:0.27063814" />
    </g>
    <path
       transform="matrix(0.26458333,0,0,0.26458333,0,97)"
       id="path1103"
       d="m 343.28313,235.61946 c -9.03628,-15.44417 -11.45349,-22.55967 -11.41006,-33.58757 0.0462,-11.71701 1.57593,-15.68876 10.62185,-27.57717 9.13818,-12.00967 8.76543,-16.58359 -1.47123,-18.05298 -10.70332,-1.53637 -27.57739,-5.42318 -28.78449,-6.63029 -2.30794,-2.30794 18.97909,-7.05477 31.84851,-7.10196 8.67127,-0.0318 9.65639,0.27758 12.27362,3.85451 2.5564,3.4938 2.94683,3.62788 3.84127,1.31916 0.54761,-1.41346 0.27475,-3.29083 -0.60635,-4.17193 -3.36668,-3.36668 -1.45619,-4.26013 7.35098,-3.4377 15.69327,1.46546 37.62569,6.59601 62.02866,14.51008 13.7937,4.4734 26.23924,7.68155 29.75223,7.66939 14.22895,-0.0493 41.10206,-9.44788 52.84076,-18.48057 4.70188,-3.618 9.60519,-5.99165 14.11914,-6.83495 8.23962,-1.53932 9.08293,-1.16479 9.08293,4.03398 0,2.19255 0.95459,6.27113 2.12132,9.0635 1.16672,2.79237 2.12132,6.98888 2.12132,9.32559 0,3.91018 -0.59133,4.41932 -7.42462,6.39254 -4.08355,1.1792 -14.74318,2.94706 -23.68808,3.9286 -13.52141,1.48372 -16.26658,2.18273 -16.28198,4.14597 -0.0349,4.4487 -13.4392,11.55265 -30.08286,15.94316 -3.77438,0.99567 -16.68293,5.3413 -28.68565,9.65696 -12.00273,4.31567 -23.68063,8.26116 -25.95091,8.76777 -2.52305,0.56301 -8.12269,4.98137 -14.40383,11.36525 -5.65183,5.74428 -12.7979,11.7307 -15.88015,13.30314 -5.39196,2.75077 -24.49598,8.60593 -28.07916,8.60593 -0.95512,0 -3.31907,-2.70469 -5.25322,-6.01041 z"
       style="fill:#ffffff;fill-opacity:1;stroke:none;stroke-width:0.56568545;stroke-miterlimit:4;stroke-dasharray:none;stroke-opacity:1" />
    <path
       transform="matrix(0.26458333,0,0,0.26458333,0,97)"
       id="path1105"
       d="m 574.54857,518.95002 c 0.22342,-28.23277 0.0588,-30.40767 -2.44492,-32.29623 -2.61127,-1.9697 -2.59771,-2.08411 0.49751,-4.19587 2.7859,-1.90072 3.18198,-3.39331 3.18198,-11.99092 0,-11.02474 -1.60191,-15.29089 -5.74161,-15.29089 -3.92272,0 -5.02763,3.92365 -6.17286,21.92031 -0.82863,13.02156 -1.7063,17.1694 -5.3864,25.45585 -2.41805,5.44472 -6.21138,11.80868 -8.4296,14.14213 l -4.03314,4.24264 0.76583,-4.24264 c 4.01691,-22.25355 10.87665,-67.21388 11.55319,-75.72235 0.89282,-11.22869 -0.71455,-16.88308 -6.04193,-21.25427 -2.24862,-1.84504 -2.36754,-1.71478 -1.38506,1.51721 3.14347,10.34081 3.40164,16.2361 0.83609,19.09188 -1.67145,1.86051 -3.10389,7.14331 -4.18588,15.43733 -1.81917,13.94494 -5.71919,24.79048 -13.55025,37.6818 -5.33964,8.78999 -8.06306,10.02396 -8.92909,4.04574 -0.27287,-1.88361 -1.19475,-3.85862 -2.04862,-4.38889 -1.54855,-0.96171 0.1069,-6.71613 12.53822,-43.58359 5.81298,-17.23949 6.71191,-25.02461 3.15583,-27.33051 -3.35235,-2.1738 -3.94373,-1.13891 -5.45752,9.55039 -0.73144,5.16484 -2.28407,11.67432 -3.45031,14.46551 -1.78529,4.27281 -2.45569,4.79668 -4.24161,3.3145 -1.80706,-1.49974 -2.12118,-1.11777 -2.12118,2.57927 0,5.46616 -8.93982,22.87974 -17.30428,33.70646 -3.51072,4.54415 -8.08263,11.23099 -10.15982,14.85962 -2.07719,3.62864 -4.71786,7.37859 -5.86815,8.33326 -4.03669,3.35014 -3.75836,-0.0407 0.5551,-6.76264 6.49997,-10.12934 8.73383,-16.44472 8.75082,-24.73972 0.0199,-9.69438 2.81221,-18.66644 8.37453,-26.90825 4.75078,-7.03932 12.82337,-23.89169 12.82337,-26.77011 0,-4.09314 -10.03818,8.55526 -17.76626,22.386 -4.61818,8.26505 -9.76389,15.92332 -11.43492,17.01842 -2.44537,1.60255 -2.9138,3.01254 -2.40059,7.22591 0.81468,6.6884 -2.81643,12.67357 -11.17977,18.4277 l -6.22555,4.2833 -3.70945,-7.56341 c -3.26382,-6.65481 -3.45337,-7.77593 -1.57789,-9.33244 4.11276,-3.41329 9.07078,-13.66456 10.59396,-21.9042 1.20964,-6.54351 3.5475,-11.27006 10.95194,-22.14182 12.87227,-18.90009 14.69569,-22.00651 14.05165,-23.93865 -0.82542,-2.47625 -11.86947,8.05304 -17.98722,17.14884 -2.89619,4.30601 -8.34801,13.71284 -12.11517,20.90405 -7.22576,13.79345 -15.15239,23.83561 -17.61362,22.31448 -2.13405,-1.31892 -1.79981,-6.83476 0.60698,-10.01683 3.66394,-4.84416 2.73421,-6.74294 -2.85735,-5.83555 -3.45038,0.55991 -5.2459,0.23606 -5.73332,-1.03415 -0.39031,-1.01714 2.50664,-6.8692 6.43768,-13.00455 3.93103,-6.13536 7.14742,-11.95069 7.14753,-12.92296 4.2e-4,-3.91917 -5.4123,-1.4656 -17.33909,7.85975 -4.4808,3.50344 -8.54702,5.96979 -9.03605,5.48075 -1.48963,-1.48963 6.06516,-10.24949 13.62641,-15.79996 6.85688,-5.03341 10.9498,-10.06411 9.427,-11.58692 -0.39747,-0.39745 -4.78826,0.90384 -9.75733,2.89179 -10.5845,4.23446 -20.86188,6.21677 -20.86188,4.02383 0,-0.81503 3.50018,-5.58204 7.77818,-10.59338 4.27799,-5.01133 7.77817,-9.517 7.77817,-10.0126 0,-1.82496 -3.46318,-0.75928 -17.75286,5.46288 -8.03844,3.50018 -15.28745,6.36396 -16.10891,6.36396 -0.86642,0 -1.49357,-3.24537 -1.49357,-7.72897 0,-6.57113 0.63557,-8.45283 4.24264,-12.56106 4.76425,-5.42618 5.20096,-8.04539 2.12434,-12.74091 -1.38849,-2.1191 -2.05652,-6.36526 -1.93897,-12.32461 0.20515,-10.40102 -3.41218,-37.9545 -5.88393,-44.81826 -0.91384,-2.53764 -1.31835,-5.5082 -0.89891,-6.60125 0.43206,-1.12593 5.42151,-3.02386 11.51088,-4.37862 11.10146,-2.46984 14.88558,-4.75246 14.88558,-8.97912 0,-3.58469 7.77588,-15.25303 11.48905,-17.24026 1.75649,-0.94004 5.45848,-3.93857 8.22665,-6.6634 13.1839,-12.97749 31.72389,-15.21522 50.29858,-6.07093 37.53911,18.48044 69.27443,83.69233 72.38603,148.74369 l 0.88009,18.39929 -3.74477,-0.93989 c -4.02776,-1.01089 -4.33296,-0.60773 -5.75745,7.60552 -0.58817,3.39127 -0.32548,4.54802 0.93829,4.13186 0.96533,-0.31788 1.97509,-2.08663 2.24392,-3.93055 l 0.4888,-3.35258 2.58494,3.42695 c 2.46343,3.26585 2.71161,3.31232 5.27943,0.98848 3.8567,-3.49028 5.40584,-3.05065 7.60349,2.15773 1.47211,3.48887 1.93934,13.28435 1.93934,40.65864 0,31.86192 -0.32019,37.05079 -2.74897,44.54772 -1.51192,4.66691 -3.91188,10.39447 -5.33325,12.72792 -2.55039,4.187 -2.58115,3.84558 -2.34474,-26.02865 z M 440.71392,394.17765 c 2.36485,-2.26758 -2.23871,-4.01187 -10.59478,-4.01439 -8.57574,-0.003 -14.14213,1.10482 -14.14213,2.81352 0,0.61072 2.00828,2.38195 4.46286,3.93608 4.19976,2.6591 4.88757,2.7014 11.66726,0.71759 3.96242,-1.15946 7.83548,-2.71322 8.60679,-3.4528 z"
       style="fill:#ffffff;fill-opacity:1;stroke:none;stroke-width:0.56568545;stroke-miterlimit:4;stroke-dasharray:none;stroke-opacity:1" />
    <path
       transform="matrix(0.26458333,0,0,0.26458333,0,97)"
       id="path1107"
       d="m 121.22535,400.21324 c 1.3162,-2.22816 10.89812,-14.46433 21.29316,-27.19151 10.39503,-12.72718 18.90006,-23.63207 18.90006,-24.23308 0,-3.74572 -10.63662,4.54262 -35.35534,27.54981 -12.28211,11.4317 -14.92788,13.32496 -15.30413,10.95136 -0.76658,-4.8361 4.32751,-11.10473 28.64441,-35.24892 12.86908,-12.77768 23.12728,-23.50318 22.79601,-23.83446 -1.03578,-1.03577 -20.64046,13.24623 -35.94663,26.18712 -16.74711,14.15914 -20.81443,16.98958 -22.29145,15.51256 -1.38107,-1.38106 5.79145,-8.71892 30.30997,-31.00865 11.12594,-10.11459 19.91723,-18.7019 19.5362,-19.08293 -0.38104,-0.38105 -7.63966,3.49276 -16.13026,8.60845 -29.06936,17.51464 -27.01725,14.42633 10.01176,-15.06718 14.61659,-11.64207 26.32558,-21.41746 26.01997,-21.72307 -0.30562,-0.30561 -3.3551,0.71446 -6.77664,2.26684 -3.42154,1.55237 -8.04512,2.83647 -10.27463,2.85356 l -4.05365,0.0311 5.11431,-5.66093 c 2.81287,-3.11351 5.11431,-6.35635 5.11431,-7.20631 0,-0.84996 1.31613,-3.39371 2.92473,-5.65278 1.6086,-2.25907 2.61598,-4.1074 2.23863,-4.1074 -0.37736,0 -7.34255,2.22738 -15.47821,4.94975 -21.68323,7.25566 -23.49747,6.30058 -6.68431,-3.51884 5.3517,-3.12556 11.32891,-7.72541 13.2827,-10.22189 l 3.55235,-4.53906 5.12088,2.44198 c 4.06404,1.938 4.9369,3.02166 4.2294,5.2508 -0.51628,1.62666 -0.24434,2.80883 0.64613,2.80883 1.9823,0 12.26066,-6.47639 13.52496,-8.52207 1.58459,-2.56392 -0.47378,-3.36231 -4.24205,-1.64537 -3.19406,1.45531 -3.60964,1.26515 -4.43671,-2.03019 -0.6611,-2.63404 0.4575,-6.30622 4.05954,-13.32685 5.13495,-10.00833 5.22571,-11.24507 0.82525,-11.24507 -3.7072,0 -3.2124,-2.96284 1.60554,-9.6138 4.57228,-6.31186 8.13604,-8.77098 12.71092,-8.77098 1.62415,0 5.64346,-2.44835 8.93181,-5.44078 3.28834,-2.99243 9.47899,-7.66006 13.75698,-10.3725 4.278,-2.71244 8.73277,-6.09464 9.8995,-7.51599 2.00898,-2.44743 1.79993,-2.54143 -3.94778,-1.77502 -4.24312,0.56578 -8.41455,2.65571 -13.86473,6.94637 -18.14995,14.28855 -27.25638,19.08401 -18.14684,9.55615 5.39762,-5.64549 35.67177,-25.84272 48.3835,-32.2788 6.39337,-3.23702 32.24499,-9.5208 42.31718,-10.28607 7.45647,-0.56654 8.04597,1.61111 1.31624,4.86228 -4.23558,2.04623 -5.14588,3.2424 -5.14588,6.7619 0,2.57579 0.8803,4.6137 2.21405,5.12551 1.69743,0.65136 2.00794,2.06958 1.33071,6.07803 -0.88081,5.21352 -0.85852,5.24165 7.82038,9.86745 l 8.70371,4.63904 -0.5757,12.21951 c -0.54109,11.48453 -1.14686,13.48695 -10.07108,33.29086 -5.53211,12.27637 -10.95548,26.97249 -12.99354,35.20957 -3.37307,13.63264 -5.04351,17.39656 -8.78415,19.79285 -1.67027,1.07 -17.86565,28.22169 -23.67341,39.68869 -2.22645,4.39594 -6.67861,7.98124 -9.91098,7.98124 -0.27558,0 0.11999,-2.24925 0.87905,-4.99831 1.38494,-5.01585 0.59287,-10.55804 -1.50893,-10.55804 -0.61845,0 -3.52685,1.90919 -6.46312,4.24264 -2.93627,2.33345 -6.46944,4.24264 -7.8515,4.24264 -1.7414,0 -4.27246,3.58181 -8.24459,11.66726 -3.15247,6.417 -8.31975,16.28114 -11.48285,21.92031 -5.61481,10.01013 -5.88262,10.25305 -11.30293,10.25305 -4.66276,0 -6.39069,0.90663 -10.78988,5.66128 -6.93896,7.49969 -7.77546,6.14536 -1.37872,-2.23219 2.79869,-3.66533 5.08853,-7.48099 5.08853,-8.47924 0,-0.99824 -2.36816,-3.76703 -5.26258,-6.15285 l -5.26258,-4.33787 -6.75824,6.65661 c -7.18248,7.07448 -8.10983,7.11486 -4.53263,0.19733 1.22408,-2.36711 1.89069,-4.63875 1.48135,-5.04808 -0.75218,-0.75219 -12.52248,8.20957 -24.67104,18.78422 -7.21806,6.28293 -15.00184,11.92136 -16.45729,11.92136 -0.50726,0 0.1546,-1.82304 1.4708,-4.05119 z"
       style="fill:#ffffff;fill-opacity:1;stroke:none;stroke-width:0.56568545;stroke-miterlimit:4;stroke-dasharray:none;stroke-opacity:1" />
  </g>
</svg>
