<?xml version="1.0" encoding="UTF-8" standalone="no"?>
<svg
   xmlns:dc="http://purl.org/dc/elements/1.1/"
   xmlns:cc="http://creativecommons.org/ns#"
   xmlns:rdf="http://www.w3.org/1999/02/22-rdf-syntax-ns#"
   xmlns:svg="http://www.w3.org/2000/svg"
   xmlns="http://www.w3.org/2000/svg"
   width="1000"
   height="1000"
   viewBox="0 0 264.58333 264.58333"
   version="1.1"
   id="svg8">
  <defs
     id="defs2" />
  <metadata
     id="metadata5">
    <rdf:RDF>
      <cc:Work
         rdf:about="">
        <dc:format>image/svg+xml</dc:format>
        <dc:type
           rdf:resource="http://purl.org/dc/dcmitype/StillImage" />
        <dc:title></dc:title>
      </cc:Work>
    </rdf:RDF>
  </metadata>
  <g
     style="display:inline"
     transform="translate(0,-32.416667)"
     id="layer1">
    <g
       transform="translate(10.583333,16.630952)"
       id="g140">
      <path
         style="fill:#fd190e;fill-opacity:1;fill-rule:evenodd;stroke:none;stroke-width:0.26458332px;stroke-linecap:butt;stroke-linejoin:miter;stroke-opacity:1"
         d="m 236.71772,134.42171 c 1.38888,0.604 3.06688,-0.42104 0.66146,-2.5592 -2.40543,-2.13815 -6.60995,-4.14925 -10.37766,-5.12676 -12.36715,-3.2086 -29.30515,-0.0649 -34.38327,-0.33212 -5.07812,-0.26727 -8.01809,-1.87089 -11.49259,-1.87089 -3.47451,0 -4.27631,-0.53454 -7.48355,1.60362 -3.20723,2.13815 -9.88897,8.01808 -12.82894,9.35443 -2.93996,1.33635 -5.07812,4.00904 -11.49259,3.20723 -6.41446,-0.8018 -12.56166,-0.53453 -16.03617,-6.68173 -1.96803,-6.29933 -2.52775,-14.9257 -0.53453,-21.11429 1.06907,-2.6727 8.01808,-10.958057 8.55262,-14.165287 0.53454,-3.207227 -6.1472,-22.450628 -7.75082,-26.192395 -1.60361,-3.741777 -11.49259,-18.976169 -14.69982,-20.579793 -3.20724,-1.603614 -8.8199,0.267272 -10.69078,1.069084 -1.87089,0.801812 -5.07812,3.207248 -7.75082,2.672706 -2.672687,-0.53454 -3.810307,-7.103368 -6.681735,-6.147216 -8.770041,2.920308 0.232726,22.749769 -5.078118,27.261526 -5.542261,6.935977 -9.731476,20.986678 -10.156243,30.468705 0,3.20724 3.741772,36.61593 0.801809,39.55589 -2.939965,2.93997 -9.354434,3.74178 -12.828939,5.34539 -3.474503,1.60362 -5.078119,3.74178 -9.621703,3.74178 -9.514627,0.0635 -11.559382,-2.53834 -17.105248,-0.53454 -2.317472,0.83733 -6.315496,1.47141 -7.216278,1.60362 -2.138156,0.26727 -4.81085,-0.26727 -5.34539,1.60361 -0.534538,1.87089 -0.801809,2.6727 0.801809,3.74178 1.603616,1.06908 2.138156,3.74177 0.534538,4.81085 -1.603616,1.06908 -2.939963,3.20723 -2.405425,4.00904 0.53454,0.80181 4.009043,-1.87089 6.949008,-2.40542 2.939963,-0.53454 6.949006,-1.33635 8.285356,-2.6727 1.336347,-1.33635 -1.069078,-2.67269 0.267269,-3.4745 1.336347,-0.80181 16.303439,1.87088 18.441595,1.33634 2.138157,-0.53453 2.306394,-2.08071 3.741775,-2.13815 11.633448,-0.46555 29.380492,-0.43656 43.29766,1.87088 4.00904,0.80181 5.07812,1.60362 8.55262,1.33635 3.47451,-0.26727 10.69078,-3.4745 13.36348,-4.81085 2.6727,-1.33635 5.87993,-5.61266 7.21628,-6.41447 1.33635,-0.80181 13.63074,1.33635 16.03617,0.26727 2.40542,-1.06908 9.6217,-6.68174 13.63074,-8.55262 4.00905,-1.87089 10.95806,-3.47451 15.76891,-5.07812 4.81085,-1.60362 7.48354,-3.20724 13.63074,-4.81086 6.1472,-1.60361 9.95104,-3.42864 17.16732,-3.69591 7.21628,-0.26727 9.6217,-0.0371 15.70683,1.55776 2.91612,0.76427 5.62637,1.66738 8.55263,2.93996 z"
         id="path75" />
      <path
         style="fill:#fd190e;fill-opacity:1;fill-rule:evenodd;stroke:none;stroke-width:0.16533981px;stroke-linecap:butt;stroke-linejoin:miter;stroke-opacity:1"
         d="m 203.00874,203.93833 c -7.17988,0.41345 -46.78599,2.07278 -27.37721,2.23069 -19.35052,1.06589 13.18391,1.88207 29.9511,1.91138 -26.61158,0.98281 -45.80728,0.40754 -49.62097,0.86718 -20.62754,0.12897 -14.81614,-0.13028 1.44668,0.19458 3.41075,-0.34199 27.12028,0.17973 37.90162,-0.15534 23.9964,0.29979 -60.24227,-0.27388 -51.90999,-0.29554 -29.09677,0.34002 23.79132,0.21942 -7.23451,0.75688 22.25304,-0.67227 -17.55082,-0.64176 -15.20284,-1.22407 25.92775,-0.86559 65.36578,-2.29713 39.78588,-2.54802 -2.65305,-0.60686 -30.41861,-1.40265 -5.48544,-1.27484 -11.37726,-0.2788 -49.39503,-0.14503 -52.63838,0.18092 21.74858,0.31472 -5.656405,0.76131 -2.999025,1.67517 -12.67242,0.13019 4.195845,0.69605 -7.50141,2.00009 9.028415,0.74749 52.577365,1.5104 38.929205,2.04723 -3.68253,0.30493 -33.686935,0.80797 -20.99959,2.16706 -3.47978,0.79945 -21.859935,1.96197 -33.082713,2.56592 16.753278,0.97447 21.288698,2.54244 -4.865581,3.21881 -5.226439,0.64606 51.837314,2.12305 24.648809,2.43784 -11.659753,0.82954 -8.37773,1.21537 -16.96512,2.00802 -18.294651,0.49466 6.91138,1.6629 -10.008368,2.73039 1.777601,1.13211 -25.418686,1.32004 2.221651,2.41787 7.42152,0.86479 -8.016299,1.51595 -18.490531,2.6074 18.932271,1.16827 -27.774354,1.81025 -10.458113,2.29036 27.061748,1.163 57.406836,2.03009 32.104044,2.87549 1.912933,0.76159 -13.654652,1.02148 -7.781726,1.52318 -19.53723,0.41677 -29.037957,0.26924 -35.430154,-0.18059 -31.20618734,0.9497 55.666497,0.91834 26.517343,0.96559 -1.660005,-0.39118 -9.249438,-1.03873 -11.191532,-1.71992 -23.300926,-0.88306 -4.987766,-1.33747 2.600101,-1.95607 27.96901,-1.23833 -28.748322,-2.30796 -26.329865,-2.88259 -19.7595113,-1.23509 57.923241,-1.79256 31.849731,-2.30125 20.664402,-0.45196 6.801106,-1.23505 -5.14769,-2.65232 -26.383445,-0.78857 -17.254498,-2.76929 -7.834593,-3.33955 -15.947535,-0.52373 -26.505205,-0.80023 1.615921,-1.71148 -15.045706,-0.41993 -4.800167,-2.05799 17.389292,-2.86968 29.263699,-1.23232 19.799491,-1.85768 -3.983475,-3.01763 30.935694,-1.4215 -20.368946,-1.84762 -16.779078,-2.19755 -7.012044,-0.5462 -45.9562083,-2.85967 -16.798864,-3.25731 -22.5926643,-1.24691 19.035276,-1.29936 43.044172,-2.3452 -6.152545,-0.706 -76.996655,-1.49782 -46.019337,-2.7367 26.601364,-0.76268 62.147654,-1.34326 53.659665,-1.9539 -20.516186,-1.01844 -4.405177,-2.16682 -5.298146,-2.72772 -13.012591,-0.87544 -26.173149,-1.03594 -1.289134,-1.73377 8.261946,-1.02469 -18.389896,-1.20947 -26.528984,-0.38446 -9.32155,0.4462 17.513288,0.93921 -9.513125,1.42127 20.568688,0.89036 -40.9884397,0.56116 -39.9697391,0.73203 28.1172271,-0.30699 48.7793751,-0.84546 42.6492541,-2.22251 -2.713176,-0.42976 -12.065194,-2.24313 -5.379962,-2.73778 -23.7585843,-1.16907 -2.749062,-1.35219 -4.119942,-2.28151 -17.1614413,-0.1647 10.53613,1.14132 10.556211,0.83942 9.628443,0.39538 -3.444404,0.10722 9.782289,0.3897 10.498183,0.008 -39.3576743,1.22055 -16.83575,1.07873 -22.0814413,-0.22905 40.829757,0.53188 30.606906,0.48424 28.144398,0.16063 8.624411,-0.50224 -13.308741,-0.56093 12.747785,-0.50556 5.264159,1.31111 15.661981,0.79086 -24.361959,-0.006 5.656134,0.10894 15.944715,-0.15243 20.864153,0.22641 -25.472733,0.68483 -9.456335,0.32069 31.077808,0.11473 -1.149365,0.32398 18.103898,0.15887 21.405405,-0.0111 9.67952,-1.13443 28.578055,-0.79165 19.74451,0.56495 26.71679,1.45238 20.42822,1.8478 -1.75989,-0.0374 33.81442,1.15736 10.11647,1.03946 27.08129,0.0383 39.373,-0.11697 19.03728,0.25176 -25.56734,0.74343 -39.01577,1.00606 -14.3646,1.44693 16.74674,0.80453 -8.90131,0.91743 -6.85356,1.03886 6.85909,0.63178 1.02223,1.32821 23.30982,1.93271 -12.16759,0.914 -54.36779,1.56982 -26.43407,2.33413 -6.3828,0.72097 13.58925,0.63663 14.57859,1.64208 27.6597,0.45743 19.65135,0.60536 -4.57495,0.78449 11.00482,0.60334 20.32629,1.02185 40.51295,1.09075 -10.50766,0.0686 20.91665,0.38297 2.30258,-0.19305 -23.59482,0.12325 -0.29692,-1.08607 5.46424,-0.91967 -3.47778,-0.34796 -21.55502,-0.70561 7.98385,-0.88948 16.13578,0.22519 29.03939,-0.0167 30.63641,-0.73312 9.72745,0.30394 -8.29005,-0.7453 2.68688,-0.29516"
         id="path27" />
    </g>
  </g>
</svg>
